<?xml version="1.0" encoding="UTF-8"?> <svg xmlns="http://www.w3.org/2000/svg" width="25" height="25" viewBox="0 0 25 25" fill="none"> <path d="M12.375 4.26367e-08C9.92746 4.26367e-08 7.53488 0.725781 5.49982 2.08556C3.46476 3.44534 1.87863 5.37805 0.941996 7.63929C0.00536189 9.90052 -0.239704 12.3887 0.237788 14.7892C0.71528 17.1898 1.89388 19.3948 3.62456 21.1254C5.35523 22.8561 7.56025 24.0347 9.96076 24.5122C12.3613 24.9897 14.8495 24.7446 17.1107 23.808C19.3719 22.8714 21.3047 21.2852 22.6644 19.2502C24.0242 17.2151 24.75 14.8225 24.75 12.375C24.7501 10.7499 24.4301 9.14059 23.8083 7.63913C23.1864 6.13767 22.2749 4.7734 21.1257 3.62425C19.9766 2.4751 18.6123 1.56357 17.1109 0.941716C15.6094 0.319862 14.0001 -0.000134861 12.375 4.26367e-08V4.26367e-08ZM16.3096 18.7512C16.2633 18.8667 16.1928 18.9709 16.1029 19.057C16.013 19.143 15.9058 19.2088 15.7884 19.25C15.6709 19.2912 15.5461 19.3068 15.4221 19.2958C15.2982 19.2848 15.178 19.2474 15.0697 19.1862L11.7103 16.5758L9.55415 18.565C9.50412 18.6019 9.44559 18.6257 9.38396 18.6341C9.32233 18.6426 9.25957 18.6353 9.20146 18.6132L9.61478 14.9149L9.62801 14.9254L9.63646 14.8524C9.63646 14.8524 15.6817 9.34863 15.9279 9.11413C16.1772 8.88025 16.095 8.82951 16.095 8.82951C16.1092 8.54423 15.6476 8.82951 15.6476 8.82951L7.63785 13.9825L4.30219 12.8465C4.30219 12.8465 3.78986 12.6627 3.7416 12.2587C3.69086 11.8577 4.31888 11.6399 4.31888 11.6399L17.5812 6.37125C17.5812 6.37125 18.6714 5.88551 18.6714 6.68992L16.3096 18.7512Z" fill="white"></path> </svg> 